<svg width="669" height="279" viewBox="0 0 669 279" fill="none" xmlns="http://www.w3.org/2000/svg">
<rect width="669" height="279" rx="17" fill="#FFCAF0"/>
<mask id="mask0_3563_1995" style="mask-type:alpha" maskUnits="userSpaceOnUse" x="0" y="0" width="669" height="279">
<rect width="669" height="279" rx="17" fill="#D9D9D9"/>
</mask>
<g mask="url(#mask0_3563_1995)">
<g style="mix-blend-mode:multiply" opacity="0.25">
<path d="M400.822 117.302C391.471 15.0337 419.157 -81.3136 479.079 -74.1369C500.128 -71.625 520.151 -53.9225 533.499 -27.4285C548.094 1.51756 552.422 31.2411 551.505 68.5002C550.111 125.794 533.719 178.184 513.366 223.637C500.898 251.506 480.105 279.316 477.135 314.302C475.558 334.995 487.66 347.913 499.908 340.437C530.419 319.625 544.867 261.853 555.612 214.187C565.623 164.07 571.564 113.175 573.838 60.8449C575.341 26.0379 576.148 -8.88865 578.605 -43.5761C580.842 -75.2133 582.602 -112.771 596.427 -137.471C622.171 -182.146 666.396 -150.868 668.267 -88.6697C669.843 -55.4177 664.599 -27.7275 659.832 4.08923C657.192 22.8085 639.149 88.3557 648.611 101.812C664.893 125.017 706.148 7.49813 721.33 73.2846C732.295 120.83 693.68 189.786 677.838 226.567C663.133 264.065 624.921 315.857 640.433 361.609C650.188 386.966 672.594 385.651 689.499 380.567C709.779 375.962 730.791 353.774 751.181 358.439C778.648 363.642 779.198 437.682 753.711 449.105C732.185 456.401 705.488 429.787 682.568 427.634C660.822 422.072 639.039 437.622 617.513 435.589C587.443 431.94 588.36 374.347 594.374 338.404C601.671 291.157 610.106 270.046 632.072 236.136C642.193 220.228 697.2 140.028 696.027 115.567C694.927 92.7216 664.049 134.227 658.732 139.729C629.578 170.17 619.897 126.631 624.078 84.7673C626.168 63.7157 628.478 43.4415 631.815 22.7486C635.189 1.81658 644.907 -63.4316 627.415 -62.2355C612.416 -61.2188 611.939 -15.2281 610.912 -3.50614C604.385 70.5335 606.732 147.145 590.596 218.314C571.637 303.298 540.173 416.869 482.196 446.174C422.898 476.137 404.526 416.451 426.969 344.803C440.5 301.564 475.265 258.085 492.5 218.553C524.331 145.65 531.335 81.7172 528.072 30.2243C525.431 -11.5201 495.874 -49.4968 461.916 -14.5702C409.476 39.3747 447.761 122.804 448.091 187.394C448.568 276.744 382.083 202.645 353.919 203.602C340.424 204.08 338.26 226.567 343.798 243.731C351.169 267.235 368.367 289.961 374.565 314.9C382.413 345.162 381.166 381.464 368.514 409.095C344.091 455.923 318.678 373.091 290.917 389.717C280.503 394.622 272.655 410.709 263.854 418.723C248.562 435.529 231.033 409.095 234.187 381.883C236.864 352.219 252.706 326.622 270.601 320.044C279.843 316.395 289.451 317.233 298.875 320.044C311.747 323.154 325.352 332.065 338.297 330.689C349.042 328.536 345.851 314.362 339.03 304.375C325.425 282.844 304.376 259.999 294.475 230.933C285.123 203.422 291.211 121.01 356.743 153.843C383.109 167.06 404.012 153.066 400.748 117.182L400.822 117.302Z" fill="#FFBDEC"/>
<path d="M252.499 151.792C261.85 254.06 234.163 350.407 174.242 343.231C153.192 340.719 133.17 323.016 119.821 296.522C105.226 267.576 100.899 237.853 101.816 200.594C103.209 143.3 119.601 90.9096 139.954 45.4572C152.422 17.5876 173.215 -10.2221 176.185 -45.2085C177.762 -65.9014 165.661 -78.8194 153.412 -71.3437C122.902 -50.5313 108.453 7.24123 97.7084 54.9065C87.6971 105.024 81.7563 155.919 79.4827 208.249C77.9792 243.056 77.1724 277.982 74.7154 312.67C72.4785 344.307 70.7183 381.865 56.8931 406.565C31.1498 451.24 -13.076 419.962 -14.9463 357.764C-16.5231 324.512 -11.2791 296.821 -6.51182 265.005C-3.87148 246.285 14.1709 180.738 4.70962 167.282C-11.5725 144.077 -52.8279 261.596 -68.0099 195.809C-78.9746 148.264 -40.3596 79.3073 -24.5175 42.5267C-9.81229 5.02841 28.3994 -46.7635 12.8873 -92.515C3.13272 -117.873 -19.2735 -116.557 -36.1791 -111.473C-56.4584 -106.868 -77.4711 -84.6804 -97.8604 -89.3453C-125.327 -94.5484 -125.877 -168.588 -100.391 -180.011C-78.8646 -187.307 -52.1678 -160.694 -29.2482 -158.541C-7.50202 -152.979 14.2808 -168.528 35.807 -166.495C65.8776 -162.847 64.9608 -105.254 58.9467 -69.3103C51.649 -22.0636 43.2146 -0.952164 21.2484 32.9578C11.1271 48.8661 -43.88 129.066 -42.7066 153.526C-41.6064 176.372 -10.7291 134.867 -5.41171 129.365C23.7421 98.9236 33.4234 142.462 29.2428 184.326C27.1526 205.378 24.8423 225.652 21.5052 246.345C18.1314 267.277 8.41344 332.525 25.9057 331.329C40.9043 330.313 41.3811 284.322 42.4079 272.6C48.9354 198.56 46.5884 121.949 62.7238 50.7799C81.683 -34.2043 113.147 -147.776 171.125 -177.081C230.422 -207.043 248.795 -147.357 226.352 -75.7096C212.82 -32.4699 178.056 11.009 160.82 50.5407C128.989 123.444 121.985 187.377 125.249 238.869C127.889 280.614 157.446 318.591 191.404 283.664C243.844 229.719 205.559 146.29 205.229 81.6996C204.752 -7.65042 271.238 66.449 299.401 65.4921C312.896 65.0137 315.06 42.5267 309.523 25.3624C302.152 1.85869 284.953 -20.8676 278.755 -45.8066C270.908 -76.0684 272.154 -112.371 284.806 -140.001C309.229 -186.829 334.643 -103.998 362.403 -120.624C372.818 -125.528 380.665 -141.616 389.466 -149.63C404.758 -166.435 422.287 -140.001 419.134 -112.789C416.457 -83.1255 400.614 -57.5285 382.719 -50.9499C373.478 -47.3017 363.87 -48.139 354.445 -50.9499C341.573 -54.0598 327.968 -62.9709 315.023 -61.5954C304.279 -59.4424 307.469 -45.2684 314.29 -35.2808C327.895 -13.7507 348.944 9.09518 358.846 38.1608C368.197 65.6716 362.11 148.084 296.578 115.251C270.211 102.034 249.308 116.028 252.572 151.912L252.499 151.792Z" fill="#FFBDEC"/>
</g>
</g>
</svg>
