<svg width="149" height="104" viewBox="0 0 149 104" fill="none" xmlns="http://www.w3.org/2000/svg">
<path d="M102.791 57.1765C105.378 74.5383 97.7173 90.8949 81.1376 89.6766C75.3134 89.2501 69.7733 86.2448 66.0799 81.747C62.0415 76.8329 60.8442 71.7868 61.0979 65.4614C61.4835 55.7347 66.019 46.8406 71.6504 39.1242C75.1003 34.3929 80.8535 29.6717 81.6754 23.7321C82.1117 20.2191 78.7633 18.026 75.3743 19.2952C66.9323 22.8285 62.9345 32.6364 59.9615 40.7284C57.1914 49.2367 55.5476 57.877 54.9185 66.761C54.5025 72.6701 54.2793 78.5995 53.5995 84.4883C52.9805 89.8593 52.4935 96.2355 48.6682 100.429C41.5452 108.013 29.3083 102.703 28.7908 92.1438C28.3545 86.4986 29.8055 81.7978 31.1245 76.3963C31.8551 73.2184 36.8473 62.0906 34.2294 59.8061C29.7243 55.8667 18.3093 75.8176 14.1086 64.6491C11.0747 56.5774 21.7592 44.8709 26.1425 38.6267C30.2114 32.2607 40.7842 23.4681 36.4922 15.701C33.7932 11.3961 27.5935 11.6194 22.9159 12.4824C17.3048 13.2642 11.4907 17.031 5.84915 16.2391C-1.75073 15.3558 -1.90293 2.78622 5.14902 0.846975C11.1051 -0.391704 18.4919 4.12643 24.8336 4.49194C30.8506 5.43618 36.8777 2.79637 42.8339 3.14157C51.1541 3.76091 50.9005 13.5384 49.2364 19.6404C47.2172 27.6614 44.8835 31.2454 38.8056 37.0022C36.0051 39.7029 20.7851 53.3183 21.1098 57.4709C21.4142 61.3494 29.9577 54.3031 31.429 53.369C39.4956 48.2011 42.1743 55.5926 41.0176 62.6997C40.4392 66.2736 39.8 69.7155 38.8766 73.2285C37.9431 76.7821 35.2543 87.8592 40.0942 87.6561C44.2442 87.4835 44.3761 79.6758 44.6602 77.6857C46.4664 65.1162 45.8169 52.1101 50.2815 40.0278C55.5273 25.6003 64.2332 6.3195 80.2751 1.34448C96.6823 -3.74223 101.766 6.39057 95.556 18.554C91.8119 25.8947 82.1928 33.276 77.4239 39.9872C68.6166 52.3639 66.6785 63.2176 67.5816 71.9594C68.3121 79.0463 76.4904 85.4935 85.8863 79.5641C100.396 70.406 89.8028 56.2424 89.7115 45.277C89.5796 30.1082 107.976 42.688 115.768 42.5255C119.502 42.4443 120.101 38.6267 118.569 35.7128C116.529 31.7226 111.77 27.8644 110.056 23.6306C107.884 18.4931 108.229 12.3301 111.73 7.6394C118.488 -0.310485 125.519 13.7516 133.2 10.929C136.082 10.0965 138.253 7.36527 140.689 6.00475C144.92 3.15173 149.77 7.63941 148.897 12.2591C148.156 17.295 143.773 21.6405 138.822 22.7574C136.265 23.3767 133.606 23.2346 130.998 22.7574C127.437 22.2294 123.673 20.7166 120.091 20.9501C117.118 21.3156 118.001 23.7219 119.888 25.4175C123.652 29.0726 129.476 32.9511 132.216 37.8855C134.803 42.556 133.119 56.547 114.987 50.9729C107.691 48.7291 101.908 51.1049 102.811 57.1967L102.791 57.1765Z" fill="#5B0333"/>
</svg>
