<svg width="509" height="103" viewBox="0 0 509 103" fill="none" xmlns="http://www.w3.org/2000/svg">
<path d="M65.0843 53.4357C64.4014 57.2601 63.5477 62.6894 63.3087 66.5821C63.0355 70.5773 63.7868 74.2993 65.2892 77.9871C66.9624 82.0847 68.4649 85.9433 69.8307 90.1433C70.3771 91.7482 70.8551 93.3872 71.4356 94.9921C71.6064 95.4702 72.0161 96.4946 72.6649 96.358C73.2113 96.2556 91.8895 46.4697 92.3334 45.377C95.0651 38.138 93.3578 38.0697 86.7333 38.0697C86.0504 38.0697 85.504 37.5233 85.504 36.8404C85.504 36.1574 86.0504 35.6111 86.7333 35.6111L106.607 35.6111C107.29 35.6111 107.836 36.1575 107.836 36.8745C107.836 37.5916 107.29 38.1038 106.607 38.1038C100.972 38.138 99.2651 37.8648 97.0456 44.0795L75.8405 101.582C75.8405 101.582 75.704 101.753 75.6015 101.753L74.1674 101.753C72.0844 101.753 69.8307 100.182 68.8404 98.0995C68.1917 96.6995 68.0893 95.1628 67.8161 93.6604C66.621 87.1384 62.9331 80.9578 61.3624 74.5383C59.416 66.6504 60.8501 58.865 61.5331 50.9088C61.7379 48.5527 62.1136 45.7527 61.4306 43.4648C60.7136 41.0746 58.1184 38.5477 55.455 39.1965C51.6305 40.1185 52.5184 44.4551 53.5428 47.1185C54.7038 50.26 56.0355 53.3674 56.6842 56.6796C57.2306 59.4455 57.094 63.1333 53.7818 63.9528C50.7428 64.7041 46.0988 61.9382 44.8012 65.7967C44.05 68.0163 45.2793 70.748 46.4403 72.5578C47.9427 74.948 49.7184 77.1676 51.0159 79.6944C51.8355 81.2652 52.4159 82.9384 52.7915 84.6799C53.4745 87.9238 53.2013 91.5092 51.2208 94.2751C50.7086 94.9921 50.0598 95.6409 49.3769 96.2214C46.0305 98.919 41.728 101.651 37.4938 101.787L35.3768 101.787C35.3768 101.787 35.1719 101.719 35.1377 101.617L10.2448 44.3527C7.75214 38.616 9.25456 38.377 1.19595 38.138C0.513023 38.138 0.000854339 37.5575 0.000854367 36.9087L0.000854369 36.8745C0.000854399 36.1916 0.547203 35.6453 1.23013 35.6453L27.5572 35.6453C28.2401 35.6453 28.7864 36.1916 28.7864 36.9087C28.7864 37.6258 28.2401 38.138 27.5572 38.138C20.3181 38.2404 19.8059 38.377 21.923 43.3282C25.406 51.421 42.65 90.6897 42.65 90.6897C42.65 90.6897 43.4012 92.636 44.6647 92.397C45.6549 92.1921 46.9524 91.236 47.4988 90.4506C50.0939 86.7969 48.4208 82.0505 46.3378 78.5334C44.1524 74.8456 40.328 70.0651 41.6256 65.5577C42.9915 60.743 47.3623 61.0504 50.1623 61.3577C53.816 61.7674 54.3281 59.5479 53.6452 56.5771C52.6549 52.2064 50.0598 48.3137 48.694 44.1819C46.4061 37.3867 52.7574 32.3672 58.6989 34.5867C65.8014 37.2502 66.2453 46.9478 65.1185 53.4357L65.0843 53.4357Z" fill="#5B0333"/>
<path d="M103.317 67.8185C103.317 48.5257 118.444 33.6719 137.6 33.6719C156.927 33.6719 171.508 48.5257 171.508 67.8185C171.508 86.8382 157.303 102.102 137.6 102.102C117.898 102.102 103.317 86.8382 103.317 67.8185ZM115.78 76.1503C121.961 91.9261 135.244 101.146 148.595 95.8871C161.947 90.6627 165.02 75.0235 158.839 59.2478C152.454 42.9939 139.956 34.5939 126.605 39.8183C113.254 45.0427 109.361 59.8624 115.746 76.1162L115.78 76.1503Z" fill="#5B0333"/>
<path d="M205.71 100.148C205.71 100.831 205.164 101.412 204.447 101.412L175.934 101.412C175.251 101.412 174.671 100.865 174.671 100.148C174.671 99.4655 175.217 98.9191 175.9 98.8849C181.329 98.7142 183.993 98.885 183.993 92.9435L183.993 47.5967C183.993 40.46 183.412 41.3479 175.08 43.4308C174.261 43.6357 173.476 43.021 173.476 42.2015C173.476 41.621 173.851 41.1088 174.432 40.9722C174.432 40.9722 179.588 40.2552 184.573 38.821C189.9 37.2503 195.056 34.9283 195.056 34.9283C195.739 34.7576 196.388 35.2698 196.388 35.9527L196.388 45.9577C196.388 46.2308 196.729 46.3333 196.866 46.0942C199.871 40.5625 203.456 34.4844 218.208 34.4844C229.135 34.4844 235.144 39.3332 237.5 46.743C237.569 46.9479 237.808 46.9821 237.944 46.8113C241.222 41.7235 244.74 34.4844 260.003 34.4844C274.584 34.4844 280.252 43.0894 280.252 55.2114L280.252 93.0117C280.252 99.0215 281.755 98.7825 288.208 98.9533C288.891 98.9533 289.437 99.5337 289.437 100.217C289.437 100.9 288.891 101.48 288.174 101.48L259.798 101.48C259.115 101.48 258.535 100.934 258.535 100.217C258.535 99.5337 259.081 98.9874 259.764 98.9533C265.193 98.7825 267.857 98.9532 267.857 93.0117L267.857 58.3529C267.857 45.582 261.949 42.0649 254.984 42.0649C244.74 42.0649 241.086 46.5723 238.593 50.9089C238.491 51.1138 238.422 51.3187 238.457 51.5236C238.593 52.7187 238.696 53.9138 238.696 55.2114L238.696 93.0117C238.696 99.0215 240.096 98.7825 246.549 98.9533C247.232 98.9533 247.779 99.5337 247.779 100.217C247.779 100.9 247.232 101.48 246.515 101.48L218.276 101.48C217.593 101.48 217.012 100.9 217.012 100.217C217.012 99.5337 217.559 98.9874 218.242 98.9533C223.671 98.7825 226.335 98.9532 226.335 93.0117L226.335 58.3529C226.335 45.7186 220.564 42.0649 213.325 42.0649C203.627 42.0649 199.529 46.9479 196.559 51.3187C196.422 51.4894 196.388 51.6943 196.388 51.8992L196.388 93.0117C196.388 99.0215 198.027 98.7825 204.481 98.9533C205.164 98.9533 205.71 99.5337 205.71 100.217L205.71 100.148Z" fill="#5B0333"/>
<path d="M353.701 80.1084C353.018 79.8011 352.199 80.0743 351.823 80.7231C345.984 90.6256 336.559 93.6646 330.106 93.6646C318.564 93.6646 309.754 87.0061 305.588 75.2255C304.871 73.1767 310.813 68.1571 316.037 65.8351C323.413 62.5229 331.13 62.5912 338.881 60.6107C346.633 58.6302 350.696 56.718 351.208 52.8594C351.755 48.6935 347.008 43.1276 344.072 40.6008C338.54 35.8544 331.608 33.7031 324.198 33.7031C302.618 33.7031 291.486 49.7521 291.486 68.123C291.486 89.089 305.896 102.133 324.745 102.133C338.437 102.133 347.828 95.0988 354.521 82.2256C354.93 81.4402 354.555 80.484 353.735 80.1426L353.701 80.1084ZM317.71 38.1763C326.828 35.8544 336.081 40.7715 338.642 52.757C339.667 57.5717 331.369 57.7082 326.486 58.6643C313.032 61.3619 308.491 64.7766 304.223 69.5913C302.583 61.8058 303.471 41.7959 317.71 38.1422L317.71 38.1763Z" fill="#5B0333"/>
<path d="M466.646 98.8876C460.158 98.7169 458.553 98.956 458.553 92.9462L458.553 1.05752C458.553 0.374589 457.904 -0.137621 457.221 0.0331119C457.221 0.0331119 452.065 2.35508 446.738 3.92583C441.753 5.39413 436.597 6.07708 436.597 6.07708C436.05 6.21367 435.641 6.72587 435.641 7.30636C435.641 8.12588 436.426 8.7405 437.245 8.53562C445.577 6.45267 446.158 5.59901 446.158 12.7015L446.158 92.9462C446.158 98.8877 443.494 98.7511 438.065 98.8876C437.382 98.8876 436.836 99.4682 436.836 100.151C436.836 100.834 437.382 101.415 438.099 101.415L466.612 101.415C467.294 101.415 467.875 100.868 467.875 100.151C467.875 99.434 467.329 98.9218 466.646 98.8876Z" fill="#5B0333"/>
<path d="M429.813 98.8986C423.359 98.7278 421.959 98.9669 422.778 92.9571L422.778 58.9812C422.778 55.6689 422.369 52.3567 421.481 49.1469C421.071 47.6445 420.764 46.7908 420.73 46.6884C418.374 39.2785 412.364 34.4297 401.437 34.4297C386.685 34.4297 383.134 40.5078 380.095 46.0396C379.959 46.2786 379.617 46.1762 379.617 45.903L379.617 35.898C379.617 35.2151 378.968 34.7029 378.285 34.8736C378.285 34.8736 373.641 36.9566 368.315 38.5956C363.397 40.0981 357.661 40.9176 357.661 40.9176C357.114 41.0542 356.705 41.5664 356.705 42.1469C356.705 42.9664 357.49 43.581 358.275 43.3761C366.607 41.2932 367.222 40.4054 367.222 47.542L367.222 92.8888C367.222 98.8303 364.558 98.6937 359.129 98.8303C358.446 98.8303 357.9 99.4108 357.9 100.094C357.9 100.777 358.446 101.357 359.163 101.357L387.676 101.357C388.359 101.357 388.939 100.811 388.939 100.094C388.939 99.4108 388.393 98.8644 387.71 98.8303C381.222 98.6596 379.617 98.8986 379.617 92.8888L379.617 51.7762C379.617 51.5713 379.685 51.3665 379.788 51.1957C382.759 46.8591 386.856 41.942 396.554 41.942C403.793 41.942 409.564 45.5957 409.564 58.2299L409.564 92.8888C409.564 98.8303 406.9 98.6937 401.471 98.8303C400.788 98.8303 400.242 99.4108 400.242 100.094C400.242 100.777 400.788 101.357 401.505 101.357L429.744 101.357C430.427 101.357 431.008 100.811 431.008 100.094C431.008 99.4108 430.461 98.8644 429.779 98.8303L429.813 98.8986Z" fill="#5B0333"/>
<path d="M501.185 18.5884C501.594 23.6763 497.77 27.1251 492.614 27.7397C487.287 28.3543 483.258 25.1104 482.848 20.7055C482.438 16.2323 485.955 12.3395 491.282 11.7249C496.438 11.1444 500.843 13.9103 501.219 18.6226L501.185 18.5884Z" fill="#5B0333"/>
<path d="M506.841 98.9085C500.353 98.7378 498.748 98.9769 498.748 92.9671L498.748 34.8153C498.748 34.1324 498.099 33.6202 497.417 33.7909C497.417 33.7909 492.26 36.1129 486.934 37.6836C481.948 39.1519 476.792 39.8348 476.792 39.8348C476.246 39.9714 475.836 40.4836 475.836 41.0641C475.836 41.8836 476.621 42.4983 477.441 42.2934C485.773 40.2105 486.353 39.3568 486.353 46.4593L486.353 92.9329C486.353 98.8744 483.69 98.7378 478.26 98.8744C477.577 98.8744 477.031 99.4549 477.031 100.138C477.031 100.821 477.577 101.401 478.294 101.401L506.807 101.401C507.49 101.401 508.07 100.855 508.07 100.138C508.07 99.4208 507.524 98.9086 506.841 98.8744L506.841 98.9085Z" fill="#5B0333"/>
</svg>
